<svg width="24" height="24" viewBox="0 0 24 24" fill="none" xmlns="http://www.w3.org/2000/svg">
<path fill-rule="evenodd" clip-rule="evenodd" d="M12 11C14.2091 11 16 9.20914 16 7C16 4.79086 14.2091 3 12 3C9.79086 3 8 4.79086 8 7C8 9.20914 9.79086 11 12 11ZM12 9C13.1046 9 14 8.10457 14 7C14 5.89543 13.1046 5 12 5C10.8954 5 10 5.89543 10 7C10 8.10457 10.8954 9 12 9Z" fill="black"/>
<path fill-rule="evenodd" clip-rule="evenodd" d="M12 11C12 11 12 11 12 11C8.69654 11 6.18732 12.3853 4.5152 14.1967C2.87057 15.9784 2 18.2129 2 20C2 20.5523 2.44772 21 3 21C3.55228 21 4 20.5523 4 20C4 18.7871 4.62943 17.0216 5.9848 15.5533C7.06712 14.3808 8.58983 13.4234 10.5761 13.1094L9.05134 17.6838C8.93157 18.0431 9.02509 18.4393 9.29292 18.7071L11.2929 20.7071C11.6834 21.0976 12.3166 21.0976 12.7071 20.7071L14.7071 18.7071C14.975 18.4393 15.0685 18.0431 14.9487 17.6838L13.4239 13.1094C15.4102 13.4234 16.9329 14.3808 18.0152 15.5533C19.3706 17.0216 20 18.7871 20 20C20 20.5523 20.4477 21 21 21C21.5523 21 22 20.5523 22 20C22 18.2129 21.1294 15.9784 19.4848 14.1967C17.8127 12.3853 15.3035 11 12 11ZM12 18.5858L11.1441 17.7299L12 15.1623L12.8559 17.7299L12 18.5858Z" fill="black"/>
</svg>
